{
    "asset" : {
        "generator" : "Khronos glTF Blender I/O v0.9.36",
        "version" : "2.0"
    },
    "scene" : 0,
    "scenes" : [
        {
            "name" : "Scene",
            "nodes" : [
                0
            ]
        }
    ],
    "nodes" : [
        {
            "mesh" : 0,
            "name" : "ghz01E_km1_rockA03L_26.002",
            "rotation" : [
                0.632716953754425,
                -0.2387833297252655,
                0.24602413177490234,
                0.6943514347076416
            ],
            "scale" : [
                1.9533318281173706,
                1.9533281326293945,
                1.9533401727676392
            ],
            "translation" : [
                -12.404752731323242,
                -1.7550612688064575,
                1.6281580924987793
            ]
        }
    ],
    "materials" : [
        {
            "doubleSided" : true,
            "name" : "Material.008",
            "normalTexture" : {
                "index" : 0,
                "scale" : 0.1400168091058731,
                "texCoord" : 0
            },
            "pbrMetallicRoughness" : {
                "baseColorTexture" : {
                    "index" : 1,
                    "texCoord" : 0
                },
                "metallicFactor" : 0,
                "roughnessFactor" : 0.5
            }
        },
        {
            "doubleSided" : true,
            "name" : "Material.009",
            "normalTexture" : {
                "index" : 2,
                "scale" : 0.1400168091058731,
                "texCoord" : 0
            },
            "pbrMetallicRoughness" : {
                "baseColorTexture" : {
                    "index" : 3,
                    "texCoord" : 0
                },
                "metallicFactor" : 0,
                "roughnessFactor" : 0.5
            }
        }
    ],
    "meshes" : [
        {
            "name" : "ghz01E_km1_rockA03L_18-geometry.034",
            "primitives" : [
                {
                    "attributes" : {
                        "POSITION" : 0,
                        "NORMAL" : 1,
                        "TANGENT" : 2,
                        "TEXCOORD_0" : 3
                    },
                    "indices" : 4,
                    "material" : 0
                },
                {
                    "attributes" : {
                        "POSITION" : 5,
                        "NORMAL" : 6,
                        "TANGENT" : 7,
                        "TEXCOORD_0" : 8
                    },
                    "indices" : 9,
                    "material" : 1
                }
            ]
        }
    ],
    "textures" : [
        {
            "source" : 0
        },
        {
            "source" : 1
        },
        {
            "source" : 2
        },
        {
            "source" : 3
        }
    ],
    "images" : [
        {
            "bufferView" : 5,
            "mimeType" : "image/png",
            "name" : "Tex_0010_1"
        },
        {
            "bufferView" : 6,
            "mimeType" : "image/png",
            "name" : "Tex_0010_0"
        },
        {
            "bufferView" : 12,
            "mimeType" : "image/png",
            "name" : "Tex_0011_2"
        },
        {
            "bufferView" : 13,
            "mimeType" : "image/png",
            "name" : "Tex_0011_0"
        }
    ],
    "accessors" : [
        {
            "bufferView" : 0,
            "componentType" : 5126,
            "count" : 164,
            "max" : [
                2.3582799434661865,
                1.2830699682235718,
                8.568220138549805
            ],
            "min" : [
                -1.7422294616699219,
                -1.3015707731246948,
                -2.1160800457000732
            ],
            "type" : "VEC3"
        },
        {
            "bufferView" : 1,
            "componentType" : 5126,
            "count" : 164,
            "type" : "VEC3"
        },
        {
            "bufferView" : 2,
            "componentType" : 5126,
            "count" : 164,
            "type" : "VEC4"
        },
        {
            "bufferView" : 3,
            "componentType" : 5126,
            "count" : 164,
            "type" : "VEC2"
        },
        {
            "bufferView" : 4,
            "componentType" : 5123,
            "count" : 702,
            "type" : "SCALAR"
        },
        {
            "bufferView" : 7,
            "componentType" : 5126,
            "count" : 188,
            "max" : [
                2.4671006202697754,
                1.3701868057250977,
                -0.3062470555305481
            ],
            "min" : [
                -1.89198899269104,
                -1.3913425207138062,
                -2.233809232711792
            ],
            "type" : "VEC3"
        },
        {
            "bufferView" : 8,
            "componentType" : 5126,
            "count" : 188,
            "type" : "VEC3"
        },
        {
            "bufferView" : 9,
            "componentType" : 5126,
            "count" : 188,
            "type" : "VEC4"
        },
        {
            "bufferView" : 10,
            "componentType" : 5126,
            "count" : 188,
            "type" : "VEC2"
        },
        {
            "bufferView" : 11,
            "componentType" : 5123,
            "count" : 528,
            "type" : "SCALAR"
        }
    ],
    "bufferViews" : [
        {
            "buffer" : 0,
            "byteLength" : 1968,
            "byteOffset" : 0
        },
        {
            "buffer" : 0,
            "byteLength" : 1968,
            "byteOffset" : 1968
        },
        {
            "buffer" : 0,
            "byteLength" : 2624,
            "byteOffset" : 3936
        },
        {
            "buffer" : 0,
            "byteLength" : 1312,
            "byteOffset" : 6560
        },
        {
            "buffer" : 0,
            "byteLength" : 1404,
            "byteOffset" : 7872
        },
        {
            "buffer" : 0,
            "byteLength" : 523248,
            "byteOffset" : 9276
        },
        {
            "buffer" : 0,
            "byteLength" : 334848,
            "byteOffset" : 532524
        },
        {
            "buffer" : 0,
            "byteLength" : 2256,
            "byteOffset" : 867372
        },
        {
            "buffer" : 0,
            "byteLength" : 2256,
            "byteOffset" : 869628
        },
        {
            "buffer" : 0,
            "byteLength" : 3008,
            "byteOffset" : 871884
        },
        {
            "buffer" : 0,
            "byteLength" : 1504,
            "byteOffset" : 874892
        },
        {
            "buffer" : 0,
            "byteLength" : 1056,
            "byteOffset" : 876396
        },
        {
            "buffer" : 0,
            "byteLength" : 296004,
            "byteOffset" : 877452
        },
        {
            "buffer" : 0,
            "byteLength" : 389418,
            "byteOffset" : 1173456
        }
    ],
    "buffers" : [
        {
            "byteLength" : 1562876,
            "uri" : "data:application/octet-stream;base64,"
        }
    ]
}
