{
    "asset" : {
        "generator" : "Khronos glTF Blender I/O v0.9.36",
        "version" : "2.0"
    },
    "scene" : 0,
    "scenes" : [
        {
            "name" : "Scene",
            "nodes" : [
                2,
                3
            ]
        }
    ],
    "nodes" : [
        {
            "mesh" : 0,
            "name" : "box_center",
            "scale" : [
                0.6666666865348816,
                0.6666666865348816,
                0.6666666865348816
            ]
        },
        {
            "mesh" : 1,
            "name" : "box_offset",
            "scale" : [
                0.6666666865348816,
                0.6666666865348816,
                0.6666666865348816
            ],
            "translation" : [
                1.57511568069458,
                0.8063645362854004,
                -1.8113832473754883
            ]
        },
        {
            "children" : [
                0,
                1
            ],
            "mesh" : 2,
            "name" : "ground",
            "scale" : [
                1.5,
                1.5,
                1.5
            ]
        },
        {
            "mesh" : 1,
            "name" : "box_copy",
            "scale" : [
                0.6000000238418579,
                0.6000000238418579,
                0.6000000238418579
            ],
            "translation" : [
                2.9761672019958496,
                0.3268612027168274,
                2.799408435821533
            ]
        }
    ],
    "materials" : [
        {
            "doubleSided" : true,
            "name" : "Wood",
            "pbrMetallicRoughness" : {
                "baseColorTexture" : {
                    "index" : 0,
                    "texCoord" : 0
                },
                "metallicFactor" : 0,
                "roughnessFactor" : 0.5
            }
        },
        {
            "doubleSided" : true,
            "name" : "Grass",
            "pbrMetallicRoughness" : {
                "baseColorFactor" : [
                    0.3600759506225586,
                    0.8000000715255737,
                    0.03321361914277077,
                    1
                ],
                "metallicFactor" : 0,
                "roughnessFactor" : 0.4000000059604645
            }
        },
        {
            "doubleSided" : true,
            "name" : "DirtPath",
            "pbrMetallicRoughness" : {
                "baseColorFactor" : [
                    0.6266632080078125,
                    0.30378633737564087,
                    0.043989378958940506,
                    1
                ],
                "metallicFactor" : 0,
                "roughnessFactor" : 0.5
            }
        }
    ],
    "meshes" : [
        {
            "name" : "box_center_mesh",
            "primitives" : [
                {
                    "attributes" : {
                        "POSITION" : 0,
                        "NORMAL" : 1,
                        "TANGENT" : 2,
                        "TEXCOORD_0" : 3
                    },
                    "indices" : 4,
                    "material" : 0
                }
            ]
        },
        {
            "name" : "box_offset_mesh",
            "primitives" : [
                {
                    "attributes" : {
                        "POSITION" : 5,
                        "NORMAL" : 6,
                        "TANGENT" : 7,
                        "TEXCOORD_0" : 8
                    },
                    "indices" : 4,
                    "material" : 0
                }
            ]
        },
        {
            "name" : "ground_mesh",
            "primitives" : [
                {
                    "attributes" : {
                        "POSITION" : 9,
                        "NORMAL" : 10,
                        "TANGENT" : 11,
                        "TEXCOORD_0" : 12
                    },
                    "indices" : 13,
                    "material" : 1
                },
                {
                    "attributes" : {
                        "POSITION" : 14,
                        "NORMAL" : 15,
                        "TANGENT" : 16,
                        "TEXCOORD_0" : 17
                    },
                    "indices" : 18,
                    "material" : 2
                }
            ]
        }
    ],
    "textures" : [
        {
            "source" : 0
        }
    ],
    "images" : [
        {
            "bufferView" : 5,
            "mimeType" : "image/png",
            "name" : "wood_d"
        }
    ],
    "accessors" : [
        {
            "bufferView" : 0,
            "componentType" : 5126,
            "count" : 24,
            "max" : [
                -1.8867440223693848,
                1.253892421722412,
                -1.8961949348449707
            ],
            "min" : [
                -3.3867440223693848,
                -0.24610763788223267,
                -3.3961949348449707
            ],
            "type" : "VEC3"
        },
        {
            "bufferView" : 1,
            "componentType" : 5126,
            "count" : 24,
            "type" : "VEC3"
        },
        {
            "bufferView" : 2,
            "componentType" : 5126,
            "count" : 24,
            "type" : "VEC4"
        },
        {
            "bufferView" : 3,
            "componentType" : 5126,
            "count" : 24,
            "type" : "VEC2"
        },
        {
            "bufferView" : 4,
            "componentType" : 5123,
            "count" : 36,
            "type" : "SCALAR"
        },
        {
            "bufferView" : 6,
            "componentType" : 5126,
            "count" : 24,
            "max" : [
                1,
                1,
                1
            ],
            "min" : [
                -1,
                -1,
                -1
            ],
            "type" : "VEC3"
        },
        {
            "bufferView" : 7,
            "componentType" : 5126,
            "count" : 24,
            "type" : "VEC3"
        },
        {
            "bufferView" : 8,
            "componentType" : 5126,
            "count" : 24,
            "type" : "VEC4"
        },
        {
            "bufferView" : 9,
            "componentType" : 5126,
            "count" : 24,
            "type" : "VEC2"
        },
        {
            "bufferView" : 10,
            "componentType" : 5126,
            "count" : 88,
            "max" : [
                3,
                1.2035281658172607,
                3
            ],
            "min" : [
                -3,
                -0.41498586535453796,
                -3
            ],
            "type" : "VEC3"
        },
        {
            "bufferView" : 11,
            "componentType" : 5126,
            "count" : 88,
            "type" : "VEC3"
        },
        {
            "bufferView" : 12,
            "componentType" : 5126,
            "count" : 88,
            "type" : "VEC4"
        },
        {
            "bufferView" : 13,
            "componentType" : 5126,
            "count" : 88,
            "type" : "VEC2"
        },
        {
            "bufferView" : 14,
            "componentType" : 5123,
            "count" : 132,
            "type" : "SCALAR"
        },
        {
            "bufferView" : 15,
            "componentType" : 5126,
            "count" : 56,
            "max" : [
                3,
                0.409342497587204,
                3
            ],
            "min" : [
                -3,
                -0.4898666441440582,
                -1
            ],
            "type" : "VEC3"
        },
        {
            "bufferView" : 16,
            "componentType" : 5126,
            "count" : 56,
            "type" : "VEC3"
        },
        {
            "bufferView" : 17,
            "componentType" : 5126,
            "count" : 56,
            "type" : "VEC4"
        },
        {
            "bufferView" : 18,
            "componentType" : 5126,
            "count" : 56,
            "type" : "VEC2"
        },
        {
            "bufferView" : 19,
            "componentType" : 5123,
            "count" : 84,
            "type" : "SCALAR"
        }
    ],
    "bufferViews" : [
        {
            "buffer" : 0,
            "byteLength" : 288,
            "byteOffset" : 0
        },
        {
            "buffer" : 0,
            "byteLength" : 288,
            "byteOffset" : 288
        },
        {
            "buffer" : 0,
            "byteLength" : 384,
            "byteOffset" : 576
        },
        {
            "buffer" : 0,
            "byteLength" : 192,
            "byteOffset" : 960
        },
        {
            "buffer" : 0,
            "byteLength" : 72,
            "byteOffset" : 1152
        },
        {
            "buffer" : 0,
            "byteLength" : 2739,
            "byteOffset" : 1224
        },
        {
            "buffer" : 0,
            "byteLength" : 288,
            "byteOffset" : 3964
        },
        {
            "buffer" : 0,
            "byteLength" : 288,
            "byteOffset" : 4252
        },
        {
            "buffer" : 0,
            "byteLength" : 384,
            "byteOffset" : 4540
        },
        {
            "buffer" : 0,
            "byteLength" : 192,
            "byteOffset" : 4924
        },
        {
            "buffer" : 0,
            "byteLength" : 1056,
            "byteOffset" : 5116
        },
        {
            "buffer" : 0,
            "byteLength" : 1056,
            "byteOffset" : 6172
        },
        {
            "buffer" : 0,
            "byteLength" : 1408,
            "byteOffset" : 7228
        },
        {
            "buffer" : 0,
            "byteLength" : 704,
            "byteOffset" : 8636
        },
        {
            "buffer" : 0,
            "byteLength" : 264,
            "byteOffset" : 9340
        },
        {
            "buffer" : 0,
            "byteLength" : 672,
            "byteOffset" : 9604
        },
        {
            "buffer" : 0,
            "byteLength" : 672,
            "byteOffset" : 10276
        },
        {
            "buffer" : 0,
            "byteLength" : 896,
            "byteOffset" : 10948
        },
        {
            "buffer" : 0,
            "byteLength" : 448,
            "byteOffset" : 11844
        },
        {
            "buffer" : 0,
            "byteLength" : 168,
            "byteOffset" : 12292
        }
    ],
    "buffers" : [
        {
            "byteLength" : 12460,
            "uri" : "data:application/octet-stream;base64,"
        }
    ]
}
